# xmcd CD database file
# Copyright (C) 1993-1998 Ti Kan
# 
# Track frame offsets:
#     150
#     18492
#     37665
#     57847
#     75432
#     94460
#     113512
#     131640
#     152050
#     172982
#     190677
#     212257
# 
# Disc length: 3079 seconds
# 
# Revision: 1
# Processed by: cddbd v1.4b41PL1 Copyright (c) Steve Scherf et al.
# Submitted via: DiscPlay 4.0.4
# 
DISCID=870c050c
DTITLE=Sergio Dalma - Cuerpo a Cuerpo
DYEAR=1900
DGENRE=
TTITLE0=Si tengo que morir
TTITLE1=No voy a volver a llorar
TTITLE2=Naufragos
TTITLE3=A tu lado
TTITLE4=Un cachito de ti
TTITLE5=September Night
TTITLE6=No despertare
TTITLE7=Yo siempre de ti
TTITLE8=La marca de tus labios
TTITLE9=La primavera llegara
TTITLE10=Los ni os de la guerra
TTITLE11=Y yo te bese
EXTD=
EXTT0=
EXTT1=
EXTT2=
EXTT3=
EXTT4=
EXTT5=
EXTT6=
EXTT7=
EXTT8=
EXTT9=
EXTT10=
EXTT11=
PLAYORDER=
